<svg width="93" height="78" viewBox="0 0 93 78" fill="none" xmlns="http://www.w3.org/2000/svg">
<rect width="93" height="78" fill="black"/>
<path d="M30.192 47.408C28.672 47.408 27.504 46.92 26.688 45.944C25.872 44.952 25.464 43.464 25.464 41.48V33.848H29.304V41.672C29.304 42.376 29.504 42.936 29.904 43.352C30.304 43.768 30.84 43.976 31.512 43.976C32.2 43.976 32.76 43.76 33.192 43.328C33.624 42.896 33.84 42.312 33.84 41.576V33.848H37.68V47H34.632V41.456H34.896C34.896 42.784 34.72 43.896 34.368 44.792C34.032 45.672 33.528 46.328 32.856 46.76C32.184 47.192 31.352 47.408 30.36 47.408H30.192ZM38.5568 47L42.6368 39.944L42.5408 40.544L38.7008 33.848H42.8528L45.2288 38.312H45.6128L47.8448 33.848H51.7568L48.0848 40.592L48.1808 40.088L52.5008 47H48.3248L45.4928 42.224H45.1088L42.4448 47H38.5568ZM61.3228 47.432C60.2508 47.432 59.3068 47.208 58.4908 46.76C57.6748 46.296 57.0348 45.632 56.5708 44.768C56.1068 43.904 55.8588 42.848 55.8268 41.6H56.2828V47H53.2348V29.48H57.0748V38.384L56.1628 39.536C56.2108 38.208 56.4588 37.096 56.9068 36.2C57.3708 35.288 58.0028 34.608 58.8028 34.16C59.6028 33.696 60.5148 33.464 61.5388 33.464C62.4348 33.464 63.2428 33.632 63.9628 33.968C64.6988 34.288 65.3228 34.752 65.8348 35.36C66.3468 35.952 66.7388 36.656 67.0108 37.472C67.2988 38.288 67.4428 39.176 67.4428 40.136V40.664C67.4428 41.624 67.2988 42.512 67.0108 43.328C66.7388 44.144 66.3308 44.864 65.7868 45.488C65.2588 46.096 64.6188 46.576 63.8668 46.928C63.1148 47.264 62.2668 47.432 61.3228 47.432ZM60.3148 44.216C60.9708 44.216 61.5388 44.056 62.0188 43.736C62.5148 43.416 62.8988 42.968 63.1708 42.392C63.4428 41.8 63.5788 41.136 63.5788 40.4C63.5788 39.648 63.4428 38.992 63.1708 38.432C62.8988 37.872 62.5148 37.44 62.0188 37.136C61.5388 36.816 60.9708 36.656 60.3148 36.656C59.7388 36.656 59.1948 36.792 58.6828 37.064C58.1708 37.336 57.7548 37.728 57.4348 38.24C57.1308 38.736 56.9788 39.344 56.9788 40.064V40.952C56.9788 41.64 57.1388 42.232 57.4588 42.728C57.7948 43.208 58.2188 43.576 58.7308 43.832C59.2428 44.088 59.7708 44.216 60.3148 44.216Z" fill="white"/>
</svg>
